<svg xmlns="http://www.w3.org/2000/svg" viewBox="0 0 200 200" width="200" height="200">
  <defs>
    <radialGradient id="furGradient" cx="50%" cy="50%" r="50%">
      <stop offset="0%" stop-color="#4a3b32" />
      <stop offset="60%" stop-color="#3d2f26" />
      <stop offset="100%" stop-color="#2a1e16" />
    </radialGradient>
    <linearGradient id="bibGradient" x1="0%" y1="0%" x2="0%" y2="100%">
      <stop offset="0%" stop-color="#ffffff" />
      <stop offset="100%" stop-color="#e2e8f0" />
    </linearGradient>
  </defs>

  <g id="ollie-body" transform="translate(0, -10)">
    <!-- Ears -->
    <path d="M40 80 L20 30 L80 50 Z" fill="url(#furGradient)" stroke="#1a120b" stroke-width="2" />
    <path d="M160 80 L180 30 L120 50 Z" fill="url(#furGradient)" stroke="#1a120b" stroke-width="2" />
    <path d="M45 70 L30 45 L65 55 Z" fill="#ebcfc4" />
    <path d="M155 70 L170 45 L135 55 Z" fill="#ebcfc4" />

    <!-- Head -->
    <path d="M50 80 Q20 110, 30 150 Q70 180, 100 180 Q130 180, 170 150 Q180 110, 150 80 Q100 50, 50 80" fill="url(#furGradient)" stroke="#1a120b" stroke-width="3" />

    <!-- White Bib -->
    <path d="M60 160 Q100 210, 140 160 Q170 190, 150 220 Q100 240, 50 220 Q30 190, 60 160" fill="url(#bibGradient)" />

    <!-- Happy Eyes (^ ^) -->
    <!-- Left Eye (Yellow accents) -->
    <path d="M55 110 Q75 85, 95 110 Z" fill="#facc15" stroke="#1a120b" stroke-width="2" />
    <!-- Right Eye (Green accents) -->
    <path d="M105 110 Q125 85, 145 110 Z" fill="#4ade80" stroke="#1a120b" stroke-width="2" />

    <!-- Nose & Muzzle -->
    <path d="M90 120 Q100 130, 110 120 Z" fill="#fca5a5" />
    
    <!-- Happy Open Mouth -->
    <path d="M85 135 Q100 155, 115 135 Z" fill="#1a120b" />
    <!-- Tongue -->
    <path d="M90 140 Q100 155, 110 140 Z" fill="#fca5a5" />

    <!-- Whiskers -->
    <g opacity="0.6" stroke="#fff" stroke-width="1.5" stroke-linecap="round">
      <path d="M30 115 L10 110" />
      <path d="M30 125 L5 125" />
      <path d="M30 135 L10 140" />
      <path d="M170 115 L190 110" />
      <path d="M170 125 L195 125" />
      <path d="M170 135 L190 140" />
    </g>
  </g>
</svg>
